<svg width="1440" height="897" viewBox="0 0 1440 897" fill="none" xmlns="http://www.w3.org/2000/svg">
<g opacity="0.6">
<mask id="path-1-inside-1_0_1" fill="white">
<path d="M-90.7991 890.223C-77.8381 839.057 -45.5954 794.884 -0.815144 766.943C43.9652 739.002 97.8146 729.457 149.47 740.305C201.126 751.154 246.586 781.554 276.343 825.149C306.1 868.744 317.848 922.156 309.131 974.213L107.44 940.44L-90.7991 890.223Z"/>
</mask>
<path d="M-90.7991 890.223C-77.8381 839.057 -45.5954 794.884 -0.815144 766.943C43.9652 739.002 97.8146 729.457 149.47 740.305C201.126 751.154 246.586 781.554 276.343 825.149C306.1 868.744 317.848 922.156 309.131 974.213L107.44 940.44L-90.7991 890.223Z" stroke="#343249" stroke-width="2.75421" mask="url(#path-1-inside-1_0_1)"/>
</g>
<circle opacity="0.3" cx="1231" cy="784" r="77.0004" transform="rotate(90 1231 784)" fill="url(#paint0_linear_0_1)"/>
<circle opacity="0.1" cx="558.5" cy="484.5" r="59.5" transform="rotate(90 558.5 484.5)" fill="url(#paint1_linear_0_1)"/>
<path opacity="0.1" d="M1099.5 759.379C1063.12 759.379 1033.62 729.884 1033.62 693.5C1033.62 657.116 1063.12 627.622 1099.5 627.622C1135.88 627.622 1165.38 657.116 1165.38 693.5C1165.38 729.884 1135.88 759.379 1099.5 759.379Z" stroke="url(#paint2_linear_0_1)" stroke-width="1.24299"/>
<circle cx="577.5" cy="190.5" r="7.5" fill="#2AA7F0"/>
<circle opacity="0.89" cx="173" cy="225" r="76" transform="rotate(90 173 225)" fill="url(#paint3_linear_0_1)"/>
<circle opacity="0.2" cx="1323" cy="23" r="81.4631" transform="rotate(90 1323 23)" fill="url(#paint4_linear_0_1)"/>
<circle opacity="0.2" cx="1166" cy="461" r="87" transform="rotate(90 1166 461)" fill="url(#paint5_linear_0_1)"/>
<circle opacity="0.1" cx="744.5" cy="246.5" r="59.5" transform="rotate(-15 744.5 246.5)" fill="url(#paint6_linear_0_1)"/>
<circle opacity="0.2" cx="567.295" cy="697.295" r="113.734" transform="rotate(-15 567.295 697.295)" fill="url(#paint7_linear_0_1)"/>
<circle opacity="0.1" r="101.315" transform="matrix(1 0 0 -1 1323 22.9999)" stroke="white" stroke-width="1.36913"/>
<circle opacity="0.1" cx="803" cy="78.0001" r="64" fill="#474495"/>
<circle opacity="0.1" r="8" transform="matrix(1 0 0 -1 495 405)" fill="#FFC700"/>
<path d="M801.235 76.7434C801.235 -103.359 650.982 -249.399 465.59 -249.399C280.197 -249.399 129.944 -103.359 129.944 76.7434C129.944 256.846 280.197 402.886 465.59 402.886C650.982 402.886 801.235 256.846 801.235 76.7434Z" stroke="#282451" stroke-width="1.52914"/>
<path d="M784.939 76.7434C784.939 -94.6133 641.982 -233.562 465.59 -233.562C289.197 -233.562 146.241 -94.6133 146.241 76.7434C146.241 248.1 289.197 387.049 465.59 387.049C641.982 387.049 784.939 248.1 784.939 76.7434Z" stroke="#282451" stroke-width="1.52914"/>
<path d="M769.806 76.7434C769.806 -86.4918 633.625 -218.857 465.59 -218.857C297.555 -218.857 161.373 -86.4918 161.373 76.7434C161.373 239.979 297.555 372.344 465.59 372.344C633.625 372.344 769.806 239.979 769.806 76.7434Z" stroke="#282451" stroke-width="1.52914"/>
<path d="M752.345 76.743C752.345 -77.1213 623.981 -201.89 465.589 -201.89C307.198 -201.89 178.834 -77.1213 178.834 76.743C178.834 230.607 307.198 355.376 465.589 355.376C623.981 355.376 752.345 230.607 752.345 76.743Z" stroke="#282451" stroke-width="1.52914"/>
<path d="M733.721 76.7434C733.721 -67.1253 613.695 -183.791 465.59 -183.791C317.484 -183.791 197.459 -67.1253 197.459 76.7434C197.459 220.612 317.484 337.278 465.59 337.278C613.695 337.278 733.721 220.612 733.721 76.7434Z" stroke="#282451" stroke-width="1.52914"/>
<path d="M711.604 76.7435C711.604 -55.2555 601.48 -162.299 465.59 -162.299C329.699 -162.299 219.576 -55.2555 219.576 76.7435C219.576 208.742 329.699 315.786 465.59 315.786C601.48 315.786 711.604 208.742 711.604 76.7435Z" stroke="#282451" stroke-width="1.52914"/>
<path d="M691.815 76.7434C691.815 -44.6352 590.551 -143.069 465.59 -143.069C340.629 -143.069 239.365 -44.6352 239.365 76.7434C239.365 198.122 340.629 296.556 465.59 296.556C590.551 296.556 691.815 198.122 691.815 76.7434Z" stroke="#282451" stroke-width="1.52914"/>
<path d="M672.026 76.7434C672.026 -34.0149 579.622 -123.839 465.589 -123.839C351.557 -123.839 259.153 -34.0149 259.153 76.7434C259.153 187.502 351.557 277.326 465.589 277.326C579.622 277.326 672.026 187.502 672.026 76.7434Z" stroke="#282451" stroke-width="1.52914"/>
<path d="M648.745 76.7435C648.745 -21.5204 566.764 -101.216 465.59 -101.216C364.415 -101.216 282.434 -21.5204 282.434 76.7435C282.434 175.007 364.415 254.703 465.59 254.703C566.764 254.703 648.745 175.007 648.745 76.7435Z" stroke="#282451" stroke-width="1.52914"/>
<path d="M630.12 76.7435C630.12 -11.5248 556.478 -83.1174 465.59 -83.1174C374.701 -83.1174 301.059 -11.5248 301.059 76.7435C301.059 165.012 374.701 236.604 465.59 236.604C556.478 236.604 630.12 165.012 630.12 76.7435Z" stroke="#282451" stroke-width="1.52914"/>
<path d="M1587.39 781.187C1587.39 584.041 1422.92 424.193 1220 424.193C1017.08 424.193 852.609 584.041 852.609 781.187C852.609 978.334 1017.08 1138.18 1220 1138.18C1422.92 1138.18 1587.39 978.334 1587.39 781.187Z" stroke="#282451" stroke-width="1.21854"/>
<path d="M1569.56 781.187C1569.56 593.608 1413.08 441.516 1220 441.516C1026.92 441.516 870.436 593.608 870.436 781.187C870.436 968.766 1026.92 1120.86 1220 1120.86C1413.08 1120.86 1569.56 968.766 1569.56 781.187Z" stroke="#282451" stroke-width="1.21854"/>
<path d="M1553.01 781.187C1553.01 602.492 1403.93 457.602 1220 457.602C1036.07 457.602 886.99 602.492 886.99 781.187C886.99 959.882 1036.07 1104.77 1220 1104.77C1403.93 1104.77 1553.01 959.882 1553.01 781.187Z" stroke="#282451" stroke-width="1.21854"/>
<path d="M1533.91 781.187C1533.91 612.743 1393.38 476.163 1220 476.163C1046.62 476.163 906.09 612.743 906.09 781.187C906.09 949.631 1046.62 1086.21 1220 1086.21C1393.38 1086.21 1533.91 949.631 1533.91 781.187Z" stroke="#282451" stroke-width="1.21854"/>
<path d="M1513.54 781.187C1513.54 623.677 1382.13 495.961 1220 495.961C1057.87 495.961 926.464 623.677 926.464 781.187C926.464 938.697 1057.87 1066.41 1220 1066.41C1382.13 1066.41 1513.54 938.697 1513.54 781.187Z" stroke="#282451" stroke-width="1.21854"/>
<path d="M1489.34 781.187C1489.34 636.662 1368.77 519.471 1220 519.471C1071.23 519.471 950.657 636.662 950.657 781.187C950.657 925.713 1071.23 1042.9 1220 1042.9C1368.77 1042.9 1489.34 925.713 1489.34 781.187Z" stroke="#282451" stroke-width="1.21854"/>
<path d="M1467.7 781.187C1467.7 648.279 1356.81 540.507 1220 540.507C1083.19 540.507 972.305 648.279 972.305 781.187C972.305 914.095 1083.19 1021.87 1220 1021.87C1356.81 1021.87 1467.7 914.095 1467.7 781.187Z" stroke="#282451" stroke-width="1.21854"/>
<path d="M1446.05 781.187C1446.05 659.897 1344.86 561.542 1220 561.542C1095.14 561.542 993.952 659.897 993.952 781.187C993.952 902.478 1095.14 1000.83 1220 1000.83C1344.86 1000.83 1446.05 902.478 1446.05 781.187Z" stroke="#282451" stroke-width="1.21854"/>
<path d="M1420.58 781.187C1420.58 673.565 1330.79 586.29 1220 586.29C1109.21 586.29 1019.42 673.565 1019.42 781.187C1019.42 888.81 1109.21 976.085 1220 976.085C1330.79 976.085 1420.58 888.81 1420.58 781.187Z" stroke="#282451" stroke-width="1.21854"/>
<path d="M1411.17 775.115C1411.17 678.427 1330.51 600.016 1230.97 600.016C1131.42 600.016 1050.76 678.427 1050.76 775.115C1050.76 871.803 1131.42 950.214 1230.97 950.214C1330.51 950.214 1411.17 871.803 1411.17 775.115Z" stroke="#282451" stroke-width="1.21854"/>
<defs>
<linearGradient id="paint0_linear_0_1" x1="1179.88" y1="811.824" x2="1349.41" y2="798.883" gradientUnits="userSpaceOnUse">
<stop stop-color="#1D1A4E"/>
<stop offset="0.588235" stop-color="#1B174B"/>
</linearGradient>
<linearGradient id="paint1_linear_0_1" x1="519" y1="506" x2="650" y2="496" gradientUnits="userSpaceOnUse">
<stop stop-color="#3D3D89"/>
<stop offset="0.588235" stop-color="#3B9FF0"/>
</linearGradient>
<linearGradient id="paint2_linear_0_1" x1="1075.47" y1="649.353" x2="1086.65" y2="795.765" gradientUnits="userSpaceOnUse">
<stop stop-color="#3D3D89"/>
<stop offset="0.588235" stop-color="#3B9FF0"/>
</linearGradient>
<linearGradient id="paint3_linear_0_1" x1="122.546" y1="252.462" x2="289.874" y2="239.689" gradientUnits="userSpaceOnUse">
<stop stop-color="#1A174B"/>
<stop offset="0.588235" stop-color="#19174A" stop-opacity="0.56"/>
</linearGradient>
<linearGradient id="paint4_linear_0_1" x1="1268.92" y1="52.4363" x2="1448.27" y2="38.745" gradientUnits="userSpaceOnUse">
<stop stop-color="#26205F"/>
<stop offset="0.588235" stop-color="#25205D" stop-opacity="0.74"/>
</linearGradient>
<linearGradient id="paint5_linear_0_1" x1="1108.24" y1="492.437" x2="1299.79" y2="477.815" gradientUnits="userSpaceOnUse">
<stop stop-color="#2A2460"/>
<stop offset="0.588235" stop-color="#2D2564" stop-opacity="0.67"/>
</linearGradient>
<linearGradient id="paint6_linear_0_1" x1="705" y1="268" x2="836" y2="258" gradientUnits="userSpaceOnUse">
<stop stop-color="#3D3D89"/>
<stop offset="0.588235" stop-color="#F0E93B"/>
</linearGradient>
<linearGradient id="paint7_linear_0_1" x1="491.791" y1="738.393" x2="742.197" y2="719.278" gradientUnits="userSpaceOnUse">
<stop stop-color="#3D3D89"/>
<stop offset="0.588235" stop-color="#172767" stop-opacity="0.28"/>
</linearGradient>
</defs>
</svg>

